<svg xmlns="http://www.w3.org/2000/svg" width="48" height="48" viewBox="0 0 48 48">
  <defs>
    <linearGradient id="fg" x1="0" y1="0" x2="1" y2="1">
      <stop offset="0%" stop-color="#567A9A"/>
      <stop offset="100%" stop-color="#1F3D5A"/>
    </linearGradient>
    <linearGradient id="fg2" x1="0" y1="0" x2="1" y2="1">
      <stop offset="0%" stop-color="#4D6F5A"/>
      <stop offset="100%" stop-color="#7FA18A"/>
    </linearGradient>
  </defs>
  <!-- Outer Hexagon -->
  <polygon points="24,3 44,14.2 44,33.8 24,45 4,33.8 4,14.2" fill="none" stroke="url(#fg)" stroke-width="2.5" stroke-linejoin="round"/>
  <!-- Inner Hexagon -->
  <polygon points="24,8 39,16.6 39,31.4 24,40 9,31.4 9,16.6" fill="#1F3D5A" opacity="0.08"/>
  <!-- Globe circle -->
  <circle cx="24" cy="24" r="11" fill="url(#fg)" opacity="0.9"/>
  <!-- Landmass -->
  <path d="M18,20 Q21,18 23,22 T22,29 T19,33 Z" fill="#7FA18A" opacity="0.85"/>
  <path d="M26,19 Q30,20 29,25 T25,30 Z" fill="#4D6F5A" opacity="0.85"/>
  <!-- DNA -->
  <line x1="24" y1="12" x2="28" y2="12" stroke="#4D6F5A" stroke-width="1.2"/>
  <line x1="23" y1="18" x2="29" y2="18" stroke="#7FA18A" stroke-width="1.2"/>
  <line x1="23" y1="24" x2="29" y2="24" stroke="#1F3D5A" stroke-width="1.2"/>
  <line x1="23" y1="30" x2="29" y2="30" stroke="#4D6F5A" stroke-width="1.2"/>
  <line x1="24" y1="36" x2="28" y2="36" stroke="#7FA18A" stroke-width="1.2"/>
  <path d="M26,8 C34,16 20,24 28,32 C36,40 22,48 26,52" stroke="#1F3D5A" stroke-width="2" stroke-linecap="round" fill="none" transform="translate(-2,-4) scale(0.8)"/>
  <path d="M26,8 C18,16 32,24 24,32 C16,40 30,48 26,52" stroke="#4D6F5A" stroke-width="2" stroke-linecap="round" fill="none" transform="translate(-2,-4) scale(0.8)"/>
</svg>
